<svg xmlns="http://www.w3.org/2000/svg" version="1.1" x="0" y="0" viewBox="0 0 575 150" enable-background="new 0 0 575 150" xml:space="preserve"><path fill="#01B9B4" d="M340.8 140.2c0 0-53.1 0-53.1 0 -1.8 0-3.3-1.6-3.6-3.3 -1.3-8.2-3.3-16.8-6.2-24.5 -0.7-1.9 0.3-4.1 2.2-4.8 1.9-0.7 4 0.2 4.8 2.2 2.7 7.2 4.3 14.9 5.7 22.4h47.6c1.5-7.9 3.6-15.6 6.5-23.1 0.7-1.9 2.8-2.9 4.8-2.2 1.9 0.7 2.9 2.9 2.2 4.8 -3 8.1-5.7 16.5-7.1 25C344.2 138.4 342.6 140.2 340.8 140.2z"/><path fill="#01B9B4" d="M349.2 96"/><path fill="#01B9B4" d="M289.6 67.1"/><path fill="#01B9B4" d="M279.7 99.9c-0.2 0-0.4 0-0.6 0l-0.5 0c-11.2 0-20.3-9.1-20.3-20.4s9.1-20.4 20.3-20.4c5 0 9.8 1.8 13.5 5.1 1.5 1.4 1.7 3.7 0.3 5.2 -1.4 1.5-3.7 1.7-5.2 0.3 -2.4-2.1-5.4-3.3-8.6-3.3 -7.1 0-12.9 5.8-12.9 13 0 7.1 5.8 13 12.9 13l0.7 0c0.9 0 1.1 0 1.6-0.2 1.7-0.8 3.4-1.4 5-2 9.5-3.4 19.5-5.2 29.6-5.2 11.8 0 23.3 2.4 34.2 7 14.3-2.2 25-14.6 25-29.2 0-12.1-7.2-22.9-18.4-27.4 -1.2-0.5-2.1-1.6-2.3-2.9 -2.1-14.4-14.7-25.2-29.2-25.2 -4.2 0-8.3 0.9-12.1 2.6 1.8 3.1 2.8 6.7 2.8 10.4 0 11.2-9.1 20.4-20.3 20.4 -2 0-3.7-1.7-3.7-3.7 0-2 1.7-3.7 3.7-3.7 7.1 0 12.9-5.8 12.9-13 0-3.4-1.3-6.6-3.6-9 -0.8-0.8-1.1-1.9-1-3 0.1-1.1 0.8-2.1 1.7-2.7C311.1 2 317.9 0 324.8 0c17.5 0 32.6 12.5 36.2 29.5 12.9 6.1 21.1 19 21.1 33.4 0 18.7-13.9 34.4-32.4 36.7 -0.7 0.1-1.3 0-1.9-0.3 -10.2-4.5-21-6.8-32.2-6.8 -9.3 0-18.4 1.6-27.1 4.8 -1.5 0.5-3 1.2-4.7 1.9C282.1 99.8 280.8 99.9 279.7 99.9z"/><path fill="#808080" d="M443.3 92.4c-2.8 0-6.4-0.9-9.4-2.2 -2-0.8-2.8-3.2-1.9-5.1v0c0.9-1.8 3.1-2.6 5-1.8 2 0.9 4.1 1.4 6 1.4 7.6 0 13.7-5.6 13.7-13.3 0-9.4-9.1-13.4-17.3-13.4 -17.3 0-28.8 15.2-28.8 31.7 0 17.8 12.5 28.5 29.8 28.5 4.7 0 10.4-1.2 15.1-3.6 2.5-1.3 5.4 0.5 5.4 3.3v0c0 1.5-0.8 2.8-2.1 3.6 -5.6 3.1-12 4.3-18.4 4.3 -21.9 0-37.9-13.8-37.9-36.4 0-21 15.2-39.1 36.8-39.1 9.4 0 18.7 3.5 23.2 12.2 1.4 2.8 2.2 5.8 2.2 8.9C464.8 83.5 455.2 92.4 443.3 92.4z"/><path fill="#808080" d="M509.3 121.5c0 1.5-0.9 2.8-2.3 3.4 -1.7 0.6-3.6 0.9-5.3 0.9 -4.6 0-8.3-3.1-9.6-7.4 -2 4.5-6.2 7.5-11.1 7.5 -8.5 0-13.8-6.4-13.8-14.6V92.2c0-2.1 1.7-3.8 3.8-3.8h0c2 0 3.7 1.6 3.7 3.7v18.7c0 5 2.7 8.6 7.9 8.6 5 0 9.1-4.8 9.1-11.1V92.1c0-2.1 1.7-3.7 3.7-3.7l0 0c2 0 3.7 1.7 3.7 3.7v21.7c0 3 1.9 5.2 5 5.2 0.6 0 1.2-0.1 1.8-0.2C507.6 118.4 509.3 119.7 509.3 121.5L509.3 121.5z"/><path fill="#808080" d="M534 125.8c-5.6 0-10.3-2.5-13.4-7.1v25.5c0 2.1-1.7 3.8-3.8 3.8h0c-2 0-3.6-1.6-3.6-3.6V92.1c0-2 1.7-3.7 3.7-3.7l0 0c2.1 0 3.7 1.7 3.7 3.7v2.5c3.1-4.7 7.8-7.1 13.4-7.1 10.6 0 18.3 8.8 18.3 19.2C552.3 117 544.6 125.8 534 125.8zM532.6 94c-5 0-9.3 3-11.2 7.4 -0.2 0.3-0.8 2-0.8 2.3v5.9c0 0.4 0.6 2 0.8 2.3 2 4.4 6.3 7.4 11.2 7.4 6.8 0 12.3-5.9 12.3-12.6C544.9 99.8 539.5 94 532.6 94z"/><path fill="#808080" d="M564.5 125.8c-2.1 0-4.4-0.3-6.4-1.1 -1.1-0.4-1.7-1.5-1.7-2.7v0c0-2.2 2.1-3.7 4.2-3.2 0.7 0.2 1.4 0.3 2.1 0.3 2.8 0 5.1-2.2 5.1-5.1 0-5.8-8.1-9.6-8.1-16.5 0-3.4 1.3-6.4 3.6-8.5 1.5-1.4 3.9-1.1 5.1 0.5v0c1 1.3 1.1 3.2 0 4.4 -0.8 1-1.3 2.2-1.3 3.5 0 5.3 7.9 8.9 7.9 17.3C575 120.8 570.7 125.8 564.5 125.8z"/><path fill="#808080" d="M113 121.6c0 1.5-0.9 2.8-2.3 3.3 -1.7 0.7-3.6 0.9-5.4 0.9 -4.6 0-8.3-3.1-9.6-7.4 -2 4.5-6.2 7.5-11.1 7.5 -8.5 0-13.8-6.4-13.8-14.6V92.1c0-2.1 1.7-3.7 3.7-3.7h0c2 0 3.7 1.7 3.7 3.7v18.6c0 5 2.7 8.6 7.9 8.6 5 0 9.1-4.8 9.1-11.1v-16c0-2.1 1.7-3.9 3.9-3.9h0c2 0 3.6 1.6 3.6 3.6v21.8c0 3 1.9 5.2 5 5.2 0.6 0 1.2-0.1 1.8-0.2C111.3 118.4 113 119.7 113 121.6L113 121.6z"/><path fill="#808080" d="M138.5 95.5h-11.3v17.3c0 3.4 1.5 6.3 5.3 6.3 0.8 0 1.6-0.1 2.3-0.3 1.7-0.5 3.5 0.9 3.5 2.7v0c0 1.5-0.9 2.9-2.3 3.5 -1.5 0.6-3.1 0.8-4.9 0.8 -7.3 0-11.3-5.2-11.3-12.3v-18h-7.9c-2 0-3.7-1.6-3.7-3.7v0c0-1.9 1.5-3.5 3.4-3.5h8.1V71.5c0-2.1 1.7-3.7 3.7-3.7h0c2 0 3.7 1.7 3.7 3.7v16.9h11.3V95.5z"/><path fill="#808080" d="M164.6 95.5h-7.7v17.3c0 3.4 1.5 6.3 5.3 6.3 0.7 0 1.4-0.1 2-0.2 1.9-0.5 3.8 1 3.8 3v0c0 1.3-0.8 2.5-2 3 -1.6 0.7-3.3 0.9-5.2 0.9 -7.3 0-11.3-5.2-11.3-12.3v-18H138v-7.1h11.6V71.8c0-2.2 1.8-4 4-4h0c1.9 0 3.5 1.6 3.5 3.5v17.1h7.7c2 0 3.5 1.6 3.5 3.5v0C168.2 93.9 166.6 95.5 164.6 95.5z"/><path fill="#808080" d="M183.6 117.1c2.2 1.4 4.6 2.2 7.2 2.2 2.4 0 5-0.3 7.3-1.2 1.9-0.7 4 0.7 4 2.7v0c0 1.7-1.1 3.2-2.7 3.7 -2.8 0.9-5.8 1.3-8.5 1.3 -11.2 0-20.4-8.2-20.1-19.9 0.3-10.2 9.2-18.8 19.4-18.5 4.6 0.2 8.6 1.8 11.9 4.7 2 1.7 2 4.7 0.2 6.5L183.6 117.1zM195.9 96.4c-1.9-1.6-4.3-2.4-6.7-2.4 -6.9 0-11.7 5.7-11.7 12.4 0 2.4 0.6 4.7 2 6.6L195.9 96.4z"/><path fill="#808080" d="M230.8 99.6c-2.3 0-4.3-1.4-5-3.6 -2.8 1.2-4.6 3.9-5.5 6.7 -0.1 0.3-0.4 1.6-0.4 1.9v16.6c0 2-1.7 3.7-3.7 3.7l0 0c-2.1 0-3.7-1.7-3.7-3.7v-29c0-2.1 1.7-3.8 3.8-3.8l0 0c2 0 3.7 1.6 3.7 3.7v2.6c2.2-4 6-7.2 10.6-7.2 3.6 0 6.6 3 6.3 6.7C236.6 97.4 234.1 99.7 230.8 99.6z"/><path fill="#808080" d="M16.3 124c-0.1-0.1-0.2-0.1-0.3-0.2C16.1 123.9 16.2 124 16.3 124z"/><path fill="#808080" d="M48.2 97.2c10.8-1 20.3-8.6 20.3-20.2 0-11.8-8.2-20.5-18.9-24.3 -4.9-1.8-10-2.4-15.2-2.4C15.5 50.3 0 61.2 0 81.2 0 87.5 1.4 92.5 5.4 97c0.7 1.1 1.9 1.8 3.3 1.8 2.2 0 3.9-1.7 3.9-3.9 0-0.8-0.3-1.6-0.7-2.3l0 0c-2.9-3.1-4.1-7-4.1-11.4 0-15.6 12.4-23.4 26.9-23.4 11.7 0 26 5.8 26 19.4 0 14.5-15 16.5-26.5 16.4 0 0 0-24.8 0-24.9 0-2.4-1.9-4.8-4.3-4.8S25.6 66 25.6 68H26v44.6c0 2.8-1.3 5.5-4.3 5.7 -0.7-0.8-1.9-1.4-3.1-1.4 -0.4 0-0.9 0.1-1.3 0.2 -0.7 0.2-1.3 0.7-1.8 1.2 -0.6 0.7-0.9 1.5-0.9 2.5 0 1.2 0.6 2.3 1.4 3 0.1 0.1 0.2 0.2 0.3 0.2 0 0 0 0 0.1 0.1 1.7 1.2 4.5 1.7 6.6 1.7 5.4 0 9.1-3 10.5-8.3 2.6 6 8.3 8.3 14.5 8.3 8.1 0 14.7-5.7 14.7-14C62.7 104 55.6 97.8 48.2 97.2zM45.3 119c-4.3 0-8.7-1.7-10.6-5.9 -0.3-0.4-0.8-2-0.8-2.5v-10.3c2-0.1 3.1-0.2 4.7-0.2 7.3 0 16.3 1.7 16.3 10.7C55 116.1 50.1 119 45.3 119z"/></svg>